<svg width="500" height="500" viewBox="0 0 500 500" fill="none" xmlns="http://www.w3.org/2000/svg">
<path d="M317.369 451.172C317.786 454.646 318.138 458.355 316.612 461.516C313.691 467.55 305.761 468.686 299.057 469.039C250.082 471.573 200.025 473.989 152.955 460.275C147.112 458.564 141.217 456.553 136.456 452.765C131.696 448.977 128.214 443.074 128.827 437.027C129.753 427.688 139.756 420.583 139.026 411.218C138.334 402.546 128.005 397.243 119.371 398.64C110.737 400.038 103.641 405.994 97.0681 411.714C78.7564 364.473 75.6784 312.712 77.4261 262.114C78.2087 239.898 79.9042 217.459 86.6732 196.274C93.4553 175.089 105.689 155.067 124.04 142.502L135.739 135.658C178.584 122.192 222.459 115.649 267.364 116.015C276.611 116.093 285.949 116.498 294.818 119.214C322.325 127.639 338.25 155.55 351.449 181.123C355.387 188.451 358.909 195.987 362 203.719C337.924 195.112 313.208 189.234 287.827 186.087C264.612 183.226 239.518 183.135 219.772 195.752C201.46 207.467 191.104 228.104 182.796 248.204C169.023 281.64 158.485 316.84 157.037 352.953C156.529 365.805 158.042 380.486 168.319 388.231C174.593 392.972 182.848 394.004 190.674 394.735C231.08 398.471 271.459 398.196 311.813 393.912C311.291 412.942 314.995 432.142 317.369 451.172Z" fill="#2E8555"/>
<path d="M316.757 451.966C317.567 458.784 316.6 465.038 309.532 467.791C304.711 469.666 299.367 469.653 294.285 469.915C281.338 470.57 268.378 471.16 255.404 471.475C229.47 472.065 203.367 471.318 177.76 466.795C171.698 465.72 165.675 464.435 159.704 462.901C153.733 461.38 147.292 459.741 141.544 456.922C136.083 454.235 131.144 449.987 129.145 444.074C127.212 438.463 129.145 433.258 131.954 428.394C135.795 421.838 141.557 414.103 136.788 406.459C132.686 399.957 123.906 397.662 116.747 399.393C111.547 400.848 106.87 403.3 102.702 406.722C101.069 407.967 99.3444 410.039 97.5154 410.969C96.4571 411.507 96.627 411.822 95.8823 410.799C95.5426 410.17 95.2943 409.501 95.1376 408.806C94.5235 407.141 93.8964 405.476 93.3477 403.824C89.3368 392.09 86.1228 380.133 83.6797 367.953C78.715 343.03 76.703 317.543 76.4417 292.148C76.1674 266.739 76.5201 240.439 81.3019 215.293C85.6002 192.572 94.4712 170.114 110.646 153.214C116.107 147.616 122.234 142.896 129.028 139.028C130.988 137.744 133.013 136.55 135.103 135.462C138.003 134.361 140.969 133.456 144.013 132.761C147.319 131.791 150.663 130.874 154.047 129.982C179.21 123.335 204.765 119.008 230.712 117.029C243.463 116.059 256.253 115.639 269.018 115.783C281.22 115.98 293.332 117.304 304.267 123.086C322.505 132.735 334.512 150.88 344.258 168.462C350.229 178.859 355.573 189.57 360.289 200.609C360.916 202.13 361.791 203.087 359.688 202.628C358.29 202.235 356.905 201.763 355.559 201.212C352.437 200.15 349.354 199.167 346.179 198.197C339.908 196.283 333.584 194.539 327.196 192.979C315.137 190.029 302.947 187.734 290.64 186.082C279.391 184.404 268.09 183.801 256.724 184.299C246.233 184.745 236.173 187.092 226.557 191.34C216.954 195.955 208.893 202.471 202.374 210.901C188.721 228.076 180.765 249.866 173.527 270.371C165.296 293.721 159.103 317.936 156.895 342.65C155.354 360.179 154.204 385.063 174.271 392.562C179.432 394.267 184.736 395.263 190.158 395.551C196.573 396.154 202.988 396.64 209.416 397.046C222.834 397.872 236.264 398.239 249.708 398.16C262.956 398.108 276.19 397.61 289.425 396.679C292.639 396.456 295.84 396.207 299.054 395.932C302.268 395.669 305.939 394.804 309.231 394.961C310.081 394.961 310.747 394.712 311.243 395.643C311.387 396.574 311.387 397.518 311.243 398.449C311.243 399.957 311.243 401.438 311.309 402.946C311.413 406.512 311.648 410.078 311.962 413.644C313.073 426.479 315.228 439.184 316.822 451.966C316.822 452.242 317.292 452.242 317.253 451.966C314.862 432.877 311.27 413.841 311.727 394.516C311.714 394.385 311.648 394.306 311.505 394.293C275.642 398.095 239.726 398.75 203.746 396.233C188.617 395.171 168.876 395.787 160.906 380.081C154.269 367.023 156.386 350.162 158.019 336.186C161.925 302.702 172.599 269.702 186.422 239.063C192.379 225.886 199.63 212.868 210.265 202.89C221.749 192.113 236.565 186.738 252.06 185.086C269.958 183.251 288.184 185.702 305.782 188.823C324.844 192.244 343.488 197.213 361.726 203.743C361.804 203.756 361.883 203.743 361.935 203.677C362 203.611 362.013 203.546 361.987 203.467C358.303 194.382 354.122 185.545 349.432 176.957C345.473 169.38 341.345 161.906 336.694 154.735C328.123 141.546 317.436 128.973 303.104 121.919C285.728 113.371 264.876 114.839 246.141 115.6C225.068 116.439 204.164 118.838 183.443 122.771C173.017 124.764 162.683 127.124 152.427 129.877C145.516 131.739 138.147 133.115 131.941 136.747C127.643 139.068 123.501 141.664 119.53 144.522C113.01 149.648 107.314 155.574 102.428 162.287C78.6628 194.788 76.6769 237.188 76.0759 275.969C75.4488 316.992 78.5582 358.527 90.9699 397.78C92.5246 402.749 94.2361 407.534 96.0652 412.333C96.1436 412.543 96.2611 412.582 96.431 412.425C103.76 406.092 112.684 398.357 123.083 399.222C132.346 399.983 140.616 407.587 137.376 417.341C134.894 424.709 128.166 430.452 127.865 438.567C127.551 447.063 134.267 453.723 141.335 457.211C150.376 461.681 160.919 463.779 170.731 465.798C181.392 467.961 192.144 469.509 202.988 470.453C225.329 472.445 247.8 472.236 270.207 471.37C276.413 471.134 282.605 470.859 288.811 470.531C293.985 470.453 299.132 470.112 304.267 469.495C308.134 468.879 312.289 467.66 314.941 464.592C318.037 461.039 317.724 456.267 317.201 451.875C317.175 451.691 316.744 451.678 316.757 451.966Z" fill="#2E8555"/>
<path d="M301.272 126.26C315.336 125.481 329.296 126.455 343.126 129.154C365.719 133.554 388.481 143.497 401.741 162.291C410.957 175.323 414.729 191.339 417.464 207.071C422.558 236.379 424.671 265.907 423.815 295.643C422.96 325.392 419.149 354.752 412.383 383.723C409.505 396.027 405.992 408.41 399.032 418.923C386.29 438.159 364.047 448.452 342.932 457.771L342.271 445.246C342.167 443.286 342.102 441.17 343.269 439.587C344.422 438.003 346.198 437.458 347.831 436.64C356.529 432.344 360.223 420.026 354.948 411.888C349.659 403.75 336.347 402.4 329.853 409.604C323.372 416.795 326.6 430.358 335.803 433.434C339.082 434.525 342.802 434.473 345.654 436.433C349.841 439.327 350.255 445.765 347.702 450.165C345.161 454.578 340.469 457.291 335.764 459.238C329.594 461.782 323.191 463.339 316.528 463.91C314.065 464.118 311.214 464.092 309.347 462.405C308.064 461.003 307.234 459.367 306.884 457.485L301.311 438.094C299.639 432.279 297.953 426.347 298.096 420.286C298.277 411.681 302.049 403.711 306.068 396.157C322.18 365.85 343.385 338.333 357.164 306.858C370.943 275.382 376.439 237.754 360.327 207.46C353.185 194.091 342.387 183.162 331.746 172.337L294 134.113" fill="#2E8555"/>
<path d="M301.474 126.729C319.417 125.663 337.064 127.522 354.4 132.305C369.127 136.503 383.531 143.392 394.472 154.362C406.331 166.281 412.003 182.152 415.387 198.334C419.043 216.388 421.446 234.611 422.583 253.003C425.102 290.085 423.022 326.908 416.343 363.458C413.243 380.433 410.091 398.565 401.991 413.98C394.498 428.226 381.929 438.338 368.158 446.098C361.57 449.802 354.658 453.065 347.812 456.171C346.688 456.691 343.975 458.55 343.148 457.406C342.748 456.847 343.006 454.689 342.967 453.961L342.761 449.958C342.554 447.904 342.476 445.851 342.515 443.797C342.735 440.561 344.621 439.131 347.269 437.831C356.674 433.269 361.26 419.868 354.297 411.225C347.876 403.257 333.188 403.036 328.072 412.576C326.974 414.786 326.393 417.113 326.354 419.582C326.316 422.052 326.806 424.404 327.84 426.64C330.126 431.826 334.286 434.127 339.621 435.206C343.923 436.089 347.747 437.675 348.858 442.393C349.258 444.499 349.129 446.566 348.483 448.593C347.824 450.634 346.726 452.389 345.176 453.857C339.04 460.018 329.041 462.657 320.748 463.918C318.552 464.334 316.343 464.516 314.108 464.49C312.558 464.464 311.188 463.97 309.974 463.008C308.76 462.033 307.972 460.798 307.597 459.304C306.15 455.04 305.142 450.595 303.915 446.28C301.396 437.48 297.779 428.2 298.657 418.906C299.536 409.613 304.057 401.268 308.411 393.275C312.609 385.58 317.105 378.067 321.678 370.594C330.643 355.958 339.97 341.531 348.122 326.401C362.978 298.768 373.894 267.248 369.372 235.391C368.222 227.696 366.104 220.3 362.991 213.177C359.877 206.055 355.898 199.465 351.041 193.421C339.996 179.292 326.496 166.944 313.979 154.18L294.356 134.216C294.252 134.151 294.162 134.164 294.071 134.255C293.981 134.333 293.981 134.424 294.046 134.528C309.173 149.93 324.559 165.124 339.441 180.8C352.94 195.097 364.102 210.773 368.055 230.438C375.793 269.081 359.27 307.086 340.112 339.633C329.984 356.803 318.913 373.388 309.238 390.831C304.716 398.955 299.807 407.494 298.425 416.853C296.978 426.575 300.505 436.128 303.14 445.344C304.535 450.27 305.595 455.417 307.442 460.2C307.842 461.5 308.579 462.579 309.638 463.437C310.697 464.295 311.912 464.776 313.255 464.88C317.363 465.361 322.027 464.308 325.98 463.372C330.449 462.358 334.725 460.837 338.833 458.823C344.827 455.807 350.55 450.387 349.413 443.03C349.233 441.666 348.755 440.405 347.992 439.261C347.243 438.104 346.261 437.181 345.073 436.479C341.624 434.517 337.348 434.946 333.873 432.97C327.323 429.266 324.933 419.751 328.279 413.109C332.077 405.558 342.153 404.063 349.142 407.676C356.971 411.706 358.96 421.311 355.408 428.98C353.793 432.593 351.222 435.31 347.734 437.142C344.97 438.559 342.554 439.612 342.115 442.978C341.482 447.969 342.476 453.52 342.748 458.537C342.761 458.758 342.864 458.823 343.071 458.719C366.918 448.125 392.147 436.05 403.864 411.069C410.104 397.72 413.01 382.799 415.801 368.41C418.798 352.995 420.968 337.462 422.324 321.813C425.102 289.734 424.43 257.734 420.283 225.811C416.744 198.451 412.338 168.296 389.899 149.657C366.013 129.809 331.457 124.74 301.435 126.248C301.164 126.248 301.164 126.703 301.435 126.677L301.474 126.729Z" fill="#2E8555"/>
<path d="M221.913 209.835C207.577 234.479 195.591 260.206 185.956 287.042C176.333 313.866 169.231 341.341 164.635 369.457C163.682 375.305 163.212 382.249 167.664 386.151C169.844 388.07 172.782 388.814 175.615 389.454C207.251 396.62 239.226 398.682 271.527 395.641C277.598 395.079 283.748 394.296 289.414 391.934C296.687 388.958 302.771 383.619 307.954 377.706C326.272 356.809 334.446 329.163 342.097 302.457L362.347 231.921C365.193 222.027 367.426 209.653 359.788 202.683C356.432 199.628 351.837 198.388 347.384 197.357C313.255 189.317 278.055 187.215 243.064 185.14C239.435 184.918 235.622 184.748 232.358 186.38C229.59 187.75 227.592 190.243 225.699 192.658L210.985 211.31" fill="#EEEDDE"/>
<path d="M221.408 209.99C197.779 250.209 180.611 292.954 169.875 338.225C167.375 349.006 164.876 359.943 163.416 370.919C162.863 374.877 162.587 379.277 164.402 382.988C166.218 386.686 170.072 388.313 174.019 389.264C198.042 394.849 222.394 397.414 247.075 396.946C258.731 396.789 270.927 396.555 282.373 394.146C292.674 391.985 300.923 386.087 307.856 378.431C322.012 362.781 330.353 343.042 336.707 323.278C344.193 300.102 350.521 276.484 357.297 253.074C360.296 242.723 364.362 232.15 365.717 221.422C366.769 213.102 365.111 204.392 356.968 200.277C352.258 197.908 346.719 197.048 341.602 195.981C335.55 194.744 329.458 193.598 323.341 192.621C311.277 190.707 299.107 189.34 286.925 188.26C274.19 187.14 261.428 186.333 248.654 185.565C243.654 185.278 237.866 184.21 233.064 186.072C228.275 187.934 225.236 192.96 222.184 196.788L210.514 211.461C210.343 211.67 210.646 211.982 210.83 211.761L222.078 197.543C225.512 193.246 228.867 187.544 234.577 186.046C240.023 184.614 246.47 185.864 251.982 186.203C257.995 186.567 264.007 186.945 270.019 187.361C293.766 189.028 317.565 191.398 340.904 196.267C346.154 197.374 351.89 198.233 356.705 200.655C359.033 201.814 360.954 203.441 362.467 205.537C363.98 207.634 364.927 209.951 365.283 212.503C366.953 222.516 362.638 233.062 359.902 242.514C353.416 264.948 347.009 287.408 340.391 309.815C334.642 329.306 328.195 349.019 316.829 366.114C311.185 374.629 304.251 383.105 295.424 388.574C285.53 394.745 273.492 395.227 262.165 395.982C238.458 397.453 214.908 396.217 191.491 392.284C185.689 391.308 179.9 390.227 174.19 388.86C168.165 387.428 164.192 384.303 163.587 377.962C163.113 373.028 164.323 368.093 165.192 363.237C166.165 357.794 167.231 352.365 168.402 346.962C177.716 303.943 192.885 263.034 213.895 224.26C216.461 219.521 219.105 214.847 221.829 210.225C221.868 210.107 221.842 210.029 221.736 209.964C221.631 209.899 221.539 209.912 221.46 210.003L221.408 209.99Z" fill="#EEEDDE"/>
<path d="M337.583 406C332.219 407.43 329.524 413.46 328.092 418.909C326.647 424.359 326.022 431.153 330.205 434.947C332.845 437.311 336.513 437.792 339.973 437.933C341.932 438.117 343.864 437.919 345.74 437.353C351.298 435.286 352.924 428.237 353.73 422.292C354.188 420.367 354.063 418.499 353.355 416.659C352.674 415.512 351.77 414.62 350.631 413.969C347.63 412.044 344.35 411.124 340.793 411.223" fill="#556D47"/>
<path d="M337.566 406.089C330.525 408.307 327.748 417.231 327.109 424.004C326.783 427.344 327.109 430.991 329.208 433.729C331.62 436.855 335.48 437.67 339.118 437.924C342.756 438.178 346.355 437.924 349.028 435.159C351.506 432.634 352.562 429.053 353.214 425.687C353.866 422.321 354.831 418.406 352.653 415.561C349.993 412.128 344.79 410.952 340.761 410.925C340.513 410.925 340.318 411.005 340.148 411.179C339.979 411.353 339.888 411.566 339.888 411.807C339.888 412.047 339.979 412.261 340.148 412.435C340.318 412.608 340.513 412.689 340.761 412.689C344.347 412.689 349.354 413.717 351.415 417.07C353.071 419.729 351.91 423.83 351.206 426.742C350.684 429.575 349.446 432.033 347.49 434.117C345.012 436.495 341.361 436.334 338.14 436.04C334.919 435.733 331.347 434.598 329.664 431.311C328.256 428.546 328.426 425.086 328.986 422.12C329.938 416.63 332.155 409.563 337.932 407.746C338.166 407.679 338.336 407.532 338.453 407.318C338.571 407.105 338.597 406.891 338.531 406.65C338.466 406.41 338.323 406.236 338.114 406.116C337.906 405.996 337.697 405.969 337.462 406.036L337.566 406.089Z" fill="#556D47"/>
<path d="M37.5598 268.24C36.5692 297.436 39.6468 326.213 46.7793 354.56C48.2587 360.571 50.0286 366.779 54.1628 371.419C58.3103 376.071 65.456 378.672 71.0035 375.797C78.7701 371.785 78.5984 360.924 77.3568 352.351C71.5187 311.668 66.3806 269.677 76.9605 229.935C73.9754 229.216 70.9375 228.916 67.8599 229.02C64.7824 229.138 61.7841 229.674 58.8518 230.615C55.9195 231.556 53.1854 232.876 50.6362 234.574C48.0737 236.26 45.8019 238.273 43.8206 240.599C41.8262 242.925 40.2015 245.461 38.9335 248.231C37.6655 251.015 36.807 253.903 36.3579 256.909C35.9088 259.915 35.8824 262.921 36.2786 265.94C36.6749 268.959 37.4938 271.86 38.709 274.644" fill="#556D47"/>
<path d="M37.4721 268.11C36.7829 288.206 38.0183 308.183 41.1784 328.043C42.6999 338.019 44.7156 347.89 47.2124 357.669C49.072 364.682 51.985 372.207 58.6173 375.956C64.0921 379.062 71.1275 378.866 75.315 373.714C79.3333 368.746 79.2943 361.523 78.7221 355.519C77.7988 346.133 76.1472 336.813 75.0159 327.44C73.7804 317.425 72.8571 307.384 72.3369 297.316C71.1015 274.717 72.2199 251.92 77.8768 229.937C78.0199 229.386 77.8248 229.033 77.2786 228.862C74.2616 228.18 71.2056 227.892 68.1105 228.036C65.0285 228.167 61.9984 228.718 59.0594 229.688C56.1074 230.645 53.3505 231.982 50.7626 233.699C48.1747 235.403 45.8599 237.435 43.8183 239.782C41.8546 242.181 40.242 244.802 38.9806 247.647C37.7192 250.492 36.8479 253.454 36.3927 256.535C35.9246 259.615 35.8725 262.709 36.2497 265.803C36.6138 268.896 37.3811 271.885 38.5645 274.756C38.9676 275.778 40.6452 275.333 40.216 274.297C39.0846 271.57 38.3434 268.726 37.9793 265.79C37.6151 262.853 37.6412 259.917 38.0573 256.994C38.4864 254.057 39.2927 251.239 40.4761 248.525C41.6595 245.812 43.181 243.308 45.0277 241.014C46.9653 238.772 49.1631 236.832 51.6209 235.194C54.0787 233.542 56.7056 232.27 59.5146 231.34C62.3105 230.422 65.1845 229.898 68.1365 229.753C71.0755 229.622 73.9885 229.885 76.8625 230.54L76.2773 229.478C67.1352 264.951 69.9181 301.904 74.6257 337.822C75.6401 345.583 77.4347 353.527 77.2526 361.431C77.0836 368.68 73.8195 377.109 65.1455 376.336C56.1594 375.562 51.6339 366.78 49.3971 359.058C46.9913 350.341 45.0797 341.519 43.6492 332.592C39.9169 311.277 38.4214 289.805 39.1627 268.162C39.1627 267.048 37.4851 267.048 37.4331 268.162L37.4721 268.11Z" fill="#556D47"/>
<path d="M37.7413 267.007L24.8297 273.618C22.9061 274.426 21.2466 275.632 19.8385 277.248C18.0784 279.633 17.9401 282.919 18.0155 285.939C18.5058 304.58 24.113 322.597 29.67 340.31C29.9843 341.887 30.726 343.212 31.8827 344.271C32.8884 344.921 33.9822 345.146 35.1514 344.907C38.5711 344.377 41.1987 341.145 42.2296 337.74C43.2731 334.335 43.0468 330.533 42.7576 326.916C41.7393 313.191 39.9289 299.572 37.3013 286.072C35.8555 278.759 34.1457 271.008 36.6978 264" fill="#556D47"/>
<path d="M36.6116 265.159L27.9037 269.818C25.3563 271.165 22.4537 272.364 20.2737 274.316C16.5872 277.697 16.8566 283.178 17.1628 287.958C17.8242 301.223 20.8125 314.192 24.3643 326.837C25.2706 330.043 26.2013 333.234 27.1566 336.426C27.867 338.81 28.3201 341.705 29.6796 343.765C31.9208 347.253 36.2931 346.189 38.8773 343.765C42.6005 340.237 43.1884 334.675 42.9557 329.585C42.625 322.461 41.7922 315.323 40.9839 308.267C40.102 300.873 39.012 293.507 37.6526 286.194C36.2319 278.532 34.3948 270.707 36.8443 263.085C37.1872 261.994 35.6195 261.536 35.2766 262.614C32.1046 272.458 35.5583 283.151 37.1872 292.955C39.2202 304.886 40.5919 316.912 41.3023 329.019C41.584 334.298 40.8124 343.55 34.407 344.169C30.4757 344.546 29.9735 340.156 29.0427 337.045C28.1854 334.204 27.3526 331.376 26.532 328.521C23.213 317.653 20.8248 306.529 19.3551 295.163C18.7427 289.548 16.8566 279.946 21.3514 275.771C23.458 273.805 26.3116 272.7 28.7855 271.367L37.4811 266.721C38.4242 266.209 37.6036 264.688 36.6728 265.172L36.6116 265.159Z" fill="#556D47"/>
<path d="M421.512 226.802C425.379 273.209 424.917 319.562 420.126 365.876C419.835 368.635 419.862 372.071 422.29 373.425C423.188 373.836 424.138 374.035 425.128 373.995C427.055 374.008 428.968 373.756 430.829 373.265C432.703 372.761 434.485 372.032 436.161 371.063C437.837 370.095 439.368 368.927 440.741 367.561C442.113 366.181 443.288 364.655 444.251 362.984C448.343 355.727 449.267 345.154 457.146 342.5C460.234 341.452 463.718 342.049 466.78 340.855C472.297 338.706 474.118 331.94 475.2 326.103L480.942 295.364C482.512 286.887 483.291 276.34 476.177 271.471C473.67 269.746 470.476 269.136 467.889 267.491C457.331 260.738 462.438 242.749 453.873 233.595C446.073 225.25 431.463 228.7 422.237 222" fill="#556D47"/>
<path d="M421.437 227.64C423.94 258.291 424.569 288.995 423.324 319.739C422.708 334.914 421.373 349.997 420.077 365.133C419.692 369.645 420.629 373.842 425.801 373.999C430.936 374.039 435.531 372.439 439.561 369.199C443.694 365.933 445.94 361.526 447.776 356.647C449.547 351.991 451.139 345.997 455.785 343.452C458.558 341.931 461.715 342.351 464.719 341.734C467.222 341.223 469.288 339.964 470.893 337.944C474.05 333.996 474.846 328.618 475.77 323.766L479.903 301.259C480.93 295.645 482.214 289.966 481.97 284.221C481.79 279.801 480.609 275.184 477.259 272.128C473.177 268.39 467.286 268.39 464.167 263.262C458.712 254.383 461.728 242.119 454.604 234.001C446.698 225.003 432.745 228.689 423.465 222.157C422.554 221.514 421.707 223.01 422.605 223.652C430.692 229.345 441.23 227.377 449.599 232.151C458.25 237.122 457.929 248.126 459.931 256.783C460.778 260.442 462.113 264.141 464.809 266.83C468.621 270.646 474.731 270.712 477.85 275.368C480.622 279.526 480.584 285.074 480.109 289.874C479.428 296.563 477.862 303.2 476.656 309.758C475.488 315.975 474.589 322.402 473.126 328.592C472.626 331.084 471.74 333.432 470.469 335.635C468.377 338.98 465.463 339.964 461.715 340.344C457.338 340.764 453.809 341.761 451.087 345.499C448.546 348.974 447.365 353.263 445.812 357.224C443.694 362.602 440.588 367.1 435.441 369.842C432.848 371.258 430.076 372.045 427.123 372.202C424.954 372.307 422.618 371.927 421.976 369.487C421.681 368.032 421.643 366.563 421.848 365.094C423.067 351.099 424.287 337.144 424.941 323.11C426.392 291.238 425.814 259.393 423.209 227.6C423.132 226.498 421.425 226.485 421.514 227.6L421.437 227.64Z" fill="#556D47"/>
<path d="M126.982 399C133.295 401.587 135.874 409.178 135.127 415.757C134.381 422.324 131.109 428.339 128.91 434.603C126.71 440.867 125.638 448.104 129.032 453.843C134.041 462.274 145.907 463.626 155.993 463.6C166.066 463.574 177.674 463.81 184 471.388C173.384 484.613 154.799 491.245 137.747 488.316C133.471 487.502 129.371 486.202 125.448 484.403C121.511 482.603 117.873 480.358 114.533 477.665C111.193 474.986 108.247 471.94 105.695 468.538C103.143 465.137 101.079 461.473 99.4775 457.572C97.957 453.646 96.9388 449.588 96.4094 445.424C95.8799 441.261 95.8664 437.098 96.3551 432.922C96.8438 428.759 97.8348 424.701 99.3146 420.761C100.808 416.808 102.749 413.091 105.139 409.585C109.306 403.557 116.488 397.844 123.656 400.051" fill="#FFD02E"/>
<path d="M126.182 399.633C134.721 403.533 134.828 413.942 132.475 421.557C129.92 429.884 125.012 437.803 125.671 446.802C126.841 462.837 144.577 464.51 157.446 464.563C166.254 464.563 176.339 465.05 182.47 472.139V470.887C180.776 472.956 178.894 474.853 176.863 476.605C174.833 478.358 172.654 479.926 170.341 481.322C168.029 482.706 165.608 483.891 163.094 484.866C160.579 485.855 157.984 486.619 155.335 487.159C152.686 487.712 149.996 488.042 147.293 488.134C144.577 488.239 141.888 488.108 139.198 487.765C136.509 487.409 133.874 486.83 131.278 486.039C128.696 485.249 126.195 484.247 123.788 483.035C121.341 481.757 119.015 480.294 116.823 478.648C114.618 477.001 112.574 475.196 110.678 473.232C108.782 471.256 107.047 469.161 105.501 466.908C103.954 464.668 102.596 462.323 101.44 459.859C100.283 457.395 99.342 454.865 98.6024 452.257C97.8629 449.648 97.3519 447 97.056 444.312C96.7602 441.611 96.6795 438.923 96.8409 436.209C96.9888 433.508 97.3653 430.833 97.957 428.198C99.3017 421.966 101.709 416.168 105.205 410.793C109.024 405.048 115.411 398.829 123.076 400.806C123.654 400.951 124.004 400.74 124.165 400.186C124.313 399.633 124.111 399.277 123.546 399.119C111.579 395.931 103 409.251 99.1941 418.342C96.7468 424.14 95.3752 430.161 95.0659 436.419C94.7566 442.691 95.5365 448.818 97.3922 454.813C104.344 476.474 126.774 492.047 150.064 489.781C156.666 489.175 162.878 487.33 168.714 484.274C174.55 481.204 179.552 477.146 183.708 472.112C184.097 471.691 184.097 471.282 183.708 470.861C173.488 459.016 155.429 464.734 141.915 461.519C132.556 459.279 126.599 452.771 127.473 442.981C128.32 433.758 134.089 425.813 135.42 416.695C136.442 409.607 134.142 401.333 127.069 398.091C126.034 397.617 125.12 399.119 126.155 399.593L126.182 399.633Z" fill="#FFD02E"/>
<path d="M145 17.7794C148.302 41.7944 154.129 65.2189 162.495 88.0402C163.245 90.0554 164.139 92.2374 166.033 93.3027C168.269 94.5221 171.032 93.906 173.531 93.2385C199.773 86.2176 226.502 82.6622 253.704 82.5723C280.92 82.4953 307.675 85.871 333.956 92.7251C344.795 70.6868 351.451 47.5189 353.95 23.2088C354.148 21.2449 353.819 18.6137 351.819 18.2671C338.994 31.7443 324.959 43.9122 309.714 54.7709C308.359 55.7464 306.767 56.7733 305.11 56.478C303.452 56.1828 302.321 54.6939 301.361 53.3205C291.969 39.3685 284.221 24.595 278.131 9C267.621 16.7911 259.005 26.2251 252.284 37.3148C251.665 38.6882 250.666 39.715 249.298 40.4082C246.798 41.3195 244.404 39.0861 242.734 37.0838L220.188 9.80863L194.248 59.6997L145.171 19.9742" fill="#FFD02E"/>
<path d="M144 18.1257C146.263 35.4701 149.724 52.5586 154.383 69.3913C156.633 77.4979 158.844 85.9142 162.081 93.6438C162.976 95.7849 164.226 97.8183 166.503 98.5993C169.793 99.7574 173.596 98.1145 176.767 97.3335C202.481 90.3984 228.655 86.9511 255.251 87.005C281.859 87.0454 308.007 90.587 333.708 97.6028C334.129 97.724 334.458 97.5759 334.695 97.1988C341.183 83.3422 346.209 68.9603 349.789 54.0533C351.526 46.647 352.908 39.1732 353.908 31.6187C354.382 28.0368 356.948 19.4184 352.039 17.789C351.723 17.6948 351.434 17.7756 351.197 18.0179C338.459 32.0227 324.365 45.5427 308.902 56.4234C307.191 57.6219 305.704 58.6049 303.559 56.8543C302.744 56.0194 302.072 55.0902 301.533 54.0533C300.27 52.0738 299.019 50.0808 297.782 48.0474C295.361 44.0211 293.071 39.9139 290.9 35.7259C286.36 26.9595 282.373 17.9506 278.912 8.68591C278.741 8.2146 278.122 7.75675 277.661 8.14727C267.436 16.1058 258.962 25.6936 252.237 36.884C251.842 37.5304 251.5 38.1633 251.079 38.8366C250.184 40.2371 249.987 40.4391 248.171 40.6007C247.473 40.7353 246.802 40.6815 246.131 40.4121C245.473 40.1563 244.934 39.7254 244.526 39.1463C243.947 38.5538 243.407 37.9344 242.907 37.2745C240.407 34.2177 238.051 31.1205 235.617 28.0502L220.694 9.19763C220.496 8.98217 220.246 8.90137 219.97 8.94177C219.681 8.98217 219.47 9.11683 219.325 9.37269L193.375 61.7156L194.743 61.527L145.645 19.782C144.803 19.0548 143.553 20.3207 144.395 21.0613L193.48 62.7255C193.69 62.9275 193.94 63.0083 194.217 62.9679C194.493 62.941 194.717 62.7929 194.862 62.5505L220.812 10.2076L219.43 10.3961L236.183 31.6053C238.683 34.716 240.933 38.4326 243.894 41.045C245.592 42.5532 247.789 43.5901 249.961 42.4725C252.132 41.3548 253.395 38.1768 254.711 36.0895C261.094 25.8552 269.016 17.0484 278.464 9.68241L277.214 9.15723C281.899 21.6403 287.544 33.6656 294.15 45.233C295.769 48.0609 297.427 50.8484 299.151 53.6089C300.401 55.5481 301.651 58.2413 303.836 59.2647C305.547 59.9515 307.165 59.7764 308.678 58.7261C311.35 57.0159 313.876 55.1037 316.258 53.0164C326.681 44.8021 336.537 35.9144 345.802 26.3535C347.052 25.0607 348.289 23.7545 349.539 22.4483C350.499 21.4383 351.908 18.9202 352.987 21.169C353.539 22.354 352.987 24.778 352.868 25.9899C352.645 28.0772 352.394 30.1509 352.105 32.2247C351.171 39.0251 349.92 45.7986 348.354 52.5182C344.828 67.6541 339.774 82.2514 333.208 96.2966L334.195 95.8791C311.087 89.577 287.584 86.0758 263.673 85.3621C239.762 84.6484 216.088 86.7626 192.664 91.6777C188.94 92.4587 185.242 93.3071 181.557 94.2363C179.807 94.6672 178.057 95.125 176.32 95.6098C174.004 96.2293 171.03 97.5893 168.595 97.2662C163.91 96.6198 163.029 91.2199 161.726 87.3551C160.278 83.0998 158.923 78.7772 157.646 74.4007C152.238 55.9925 148.277 37.2745 145.777 18.2334C145.619 17.1023 143.882 17.0888 144.026 18.2334L144 18.1257Z" fill="#FFD02E"/>
<path d="M163.221 26.7115C171.664 48.0235 179.257 69.6282 186 91.5123C181.374 94.9313 176.33 97.6185 170.895 99.5475C169.992 100.026 169.048 100.12 168.063 99.8535C167.186 99.3214 166.593 98.5764 166.31 97.5919C155.251 71.7834 143.922 44.9504 145.082 17C151.448 20.552 157.004 25.0752 161.738 30.5695" fill="#EEEDDE"/>
<path d="M163.008 27.0618C167.745 39.2248 172.201 51.4951 176.417 63.8992C178.458 69.887 180.433 75.9015 182.341 81.9428C182.875 83.5905 183.382 85.2247 183.902 86.8858C184.542 88.2923 184.996 89.7658 185.263 91.2794C185.263 93.7174 180.393 95.7133 178.525 96.7314C176.07 98.004 173.108 99.8927 170.346 100.348C166.25 101.045 164.689 93.9987 163.555 91.2393C161.127 85.4257 158.765 79.5719 156.604 73.7047C152.081 62.0774 148.785 50.1019 146.731 37.8049C146.197 34.2284 145.823 30.6518 145.61 27.0484C145.503 25.24 145.436 23.4183 145.436 21.5965C145.436 20.3239 144.903 17.8726 146.45 18.1539C147.718 18.3682 149.519 20.0962 150.56 20.8329C152.001 21.8644 153.415 22.9494 154.763 24.1148C157.244 26.2447 159.539 28.5621 161.674 31.0403C161.847 31.2546 162.168 30.9465 161.981 30.7188C157.231 25.2132 151.707 20.6588 145.41 17.042C145.33 16.9885 145.25 16.9885 145.183 17.0286C145.103 17.0822 145.063 17.1358 145.063 17.2296C144.369 36.9074 149.506 56.0495 156.35 74.3744C158.098 79.0494 159.966 83.6709 161.861 88.2655C162.715 90.315 163.555 92.3779 164.396 94.4274C164.983 96.3161 165.783 98.1245 166.811 99.8257C168.612 102.183 171.574 100.415 173.749 99.4908C178.071 97.6289 182.114 95.2981 185.89 92.4984C185.983 92.4315 186.01 92.3511 185.997 92.2439C179.286 70.2219 171.761 48.4811 163.408 26.9948C163.315 26.7269 162.875 26.8341 162.981 27.102L163.008 27.0618Z" fill="#EEEDDE"/>
<path d="M188.461 57.186C192.912 66.2441 197.096 75.4144 201 84.6843L196.469 85.868C196.03 86.0175 195.59 86.0424 195.137 85.9303C194.644 85.6562 194.297 85.27 194.124 84.7466C188.714 72.9349 183.277 61.1232 179 49L185.329 54.2206" fill="#EEEDDE"/>
<path d="M188.734 57.4623C191.827 63.5315 194.798 69.6623 197.632 75.8178C198.385 77.4708 202.204 83.3673 200.589 84.6748C199.658 85.0326 198.686 85.2669 197.673 85.378C196.975 85.3903 196.345 85.2299 195.756 84.8969C195.181 84.5515 194.757 84.0951 194.483 83.5153C193.689 82.0967 192.991 80.6411 192.389 79.1485C189.486 72.9929 186.612 66.8251 183.97 60.5833C182.71 57.6227 181.505 54.6375 180.355 51.6399C179.562 49.5305 179.904 49.9992 181.492 51.2821L185.571 54.5018C185.79 54.6745 186.119 54.3907 185.9 54.218L179.397 49.0494C179.233 48.926 178.932 49.0494 179.014 49.2468C182.094 57.6104 185.681 65.8136 189.418 73.9428C191.061 77.4461 192.389 81.4182 194.511 84.6872C196.153 87.216 199.206 85.4273 201.834 84.7859C201.985 84.7489 202.026 84.6625 201.985 84.5391C197.988 75.3491 193.689 66.2577 189.117 57.2773C189.007 57.0429 188.61 57.2773 188.734 57.487V57.4623Z" fill="#EEEDDE"/>
<path d="M273.92 82.159C275.687 57.7596 277.704 33.3601 279.971 9C283.825 21.4292 294.871 31.4853 295.956 44.334C296.123 48.241 295.817 52.1219 295.038 55.9634L290.558 83.575C290.586 83.7848 290.572 83.9946 290.489 84.1912C290.405 84.3879 290.28 84.5583 290.099 84.7025C289.932 84.8468 289.723 84.9385 289.501 84.9779C289.278 85.0172 289.056 85.0041 288.833 84.9385L272 83.1161" fill="#EEEDDE"/>
<path d="M274.283 82.0703C276.022 59.1101 277.898 36.1498 279.924 13.2287C279.938 12.1981 280.006 11.1805 280.13 10.163C280.404 11.1805 280.773 12.159 281.239 13.0982C282.088 15.0551 283.06 16.9728 284.1 18.8383C286.332 22.8303 288.838 26.6787 290.987 30.7098C293.562 35.1453 295.095 39.8939 295.602 44.9425C295.971 50.8131 294.534 56.7488 293.616 62.541L290.7 80.7005C290.673 81.4441 290.563 82.1877 290.344 82.9052C289.755 84.3141 289.043 84.4707 287.606 84.5229C286.017 84.4707 284.429 84.3011 282.868 84.0011L272.216 82.84C271.928 82.84 271.928 83.2444 272.216 83.2705C277.336 83.8315 282.471 84.4316 287.606 84.9534C291.22 85.3317 290.741 83.3749 291.234 80.27C292.685 71.125 294.328 62.0062 295.602 52.8351C296.752 45.1121 295.41 37.8066 291.59 30.9055C287.797 23.6521 282.8 16.9989 280.28 9.18457C280.253 9.04107 280.171 8.98888 280.034 9.00193C279.883 9.02802 279.815 9.1063 279.842 9.2498C277.61 33.5146 275.611 57.7924 273.831 82.0703C273.831 82.3573 274.256 82.3573 274.283 82.0703Z" fill="#EEEDDE"/>
<path d="M302.834 58.3836L298 84.7339L302.86 85.9248C303.201 86.0251 303.528 86.0251 303.869 85.9248C304.301 85.7493 304.472 85.2353 304.576 84.7339L311.598 56.616L313 51C309.633 54.4975 305.559 56.967 300.79 58.3836" fill="#EEEDDE"/>
<path d="M302.709 58.4474L298.014 84.4736C297.976 84.6098 298.014 84.6841 298.154 84.7213C299.821 85.1301 303.104 86.9139 304.542 85.4026C305.203 84.6965 305.331 82.5163 305.572 81.5625L307.087 75.344L312.991 51.2626C313.016 51.1635 312.991 51.0892 312.889 51.0397C312.8 50.9777 312.711 50.9901 312.635 51.0644C309.352 54.471 305.432 56.8866 300.877 58.3111C300.622 58.3978 300.724 58.7942 300.992 58.7075C303.575 57.9147 305.992 56.7875 308.245 55.3257C309.237 54.6692 310.191 53.9507 311.082 53.1703C312.749 51.7086 312.444 51.8944 311.947 53.9383L306.959 74.2043L305.751 79.3451C305.394 80.8069 305.318 83.2967 304.491 84.4983C303.651 85.7123 300.432 85.3902 299.299 84.4983C298.179 83.6064 299.121 81.067 299.299 79.8035L303.155 58.4474C303.155 58.1996 302.798 58.0881 302.748 58.3483L302.709 58.4474Z" fill="#EEEDDE"/>
<path d="M348.947 19.9548C342.922 46.4883 335.61 72.639 327 98.4207C329.29 100.909 333.588 100.239 336.039 97.9286C338.503 95.6047 339.587 92.1735 340.525 88.8517C347.26 65.64 352.081 42.0182 355 18L348.894 18.4374" fill="#EEEDDE"/>
<path d="M348.657 20.081C342.696 46.4542 335.483 72.4737 327.03 98.1396C326.99 98.2076 326.99 98.2892 327.03 98.3572C330.946 102.016 336.208 98.9828 338.45 94.9296C340.138 91.8557 340.955 88.2377 341.826 84.8782C343.079 80.4169 344.239 75.9148 345.334 71.3992C349.606 53.8805 352.824 36.1579 355 18.2312C355 18.0816 354.921 18 354.776 18L348.762 18.4488C348.485 18.4488 348.485 18.9249 348.762 18.8977L352.27 18.6393C354.182 18.4897 354.248 18.7889 354.275 20.5299C354.275 23.8486 353.338 27.5346 352.85 30.8397C352.02 36.4027 351.083 41.9385 350.055 47.4607C347.958 58.6818 345.426 69.8078 342.485 80.8522C341.14 85.8167 340.204 92.0189 337.092 96.2082C335.39 98.4524 332.041 100.533 329.126 99.2413C326.463 97.9627 329.219 92.7942 329.918 90.618C333.373 79.7912 336.617 68.8829 339.637 57.893C343.052 45.4341 346.191 32.8936 349.039 20.2578C349.092 19.9858 348.683 19.8498 348.617 20.1354L348.657 20.081Z" fill="#EEEDDE"/>
<path d="M130.938 403C117.184 409.002 108.843 423.28 106.25 437.675C104.098 449.705 105.702 463.126 114.03 472.272C121.541 480.509 133.37 484.042 144.691 484.055C156.026 484.068 167.107 481.028 178 477.988C173.415 482.743 166.345 484.146 159.742 485.38L139.853 489.005C136.137 489.681 132.328 490.369 128.585 489.772C124.402 488.888 120.686 487.095 117.438 484.393C114.631 482.249 112.051 479.859 109.712 477.248C107.36 474.623 105.301 471.804 103.51 468.803C101.719 465.789 100.249 462.658 99.0728 459.371C97.9099 456.097 97.0678 452.732 96.5733 449.302C96.0654 445.873 95.8916 442.417 96.0654 438.948C96.2525 435.492 96.7604 432.062 97.6025 428.698C98.4579 425.333 99.6341 422.072 101.118 418.915C102.615 415.758 104.406 412.77 106.478 409.951C107.761 407.963 109.458 406.404 111.557 405.261C113.602 404.481 115.714 404.13 117.906 404.182L130.804 403.792" fill="#EEEDDE"/>
<path d="M130.311 403.018C113.694 410.475 104.989 428.791 104.505 445.788C104.249 454.642 106.294 463.897 112.08 471.004C117.852 478.111 127.068 482.214 136.352 483.599C147.345 485.23 158.445 483.185 169.061 480.493L173.487 479.328C174.254 479.12 176.286 478.098 177.012 478.396C176.716 478.266 174.456 480.311 173.81 480.713C172.384 481.528 170.891 482.201 169.33 482.719C164.217 484.518 158.633 485.179 153.265 486.201C146.874 487.366 140.294 488.984 133.769 489.567C127.001 490.188 121.404 487.625 116.278 483.612C107.747 476.907 101.76 468.519 98.3021 458.474C96.3512 452.778 95.4228 446.94 95.517 440.946C95.5977 434.953 96.6876 429.141 98.7865 423.497C100.805 418.034 103.805 411.73 108.205 407.64C111.299 404.753 115.026 404.701 119.076 404.572L130.257 404.17C130.54 404.17 130.54 403.73 130.257 403.743L119.668 404.106C116.749 404.209 113.533 404.054 110.829 405.284C106.469 407.251 103.603 412.546 101.491 416.442C100.172 418.85 99.0556 421.335 98.1272 423.911C97.1988 426.474 96.4723 429.102 95.961 431.769C95.4363 434.448 95.1268 437.141 95.0326 439.859C94.9384 442.577 95.0461 445.283 95.3825 447.988C95.7054 450.694 96.2436 453.348 96.9836 455.975C97.737 458.603 98.6789 461.153 99.8225 463.639C100.966 466.124 102.298 468.519 103.819 470.81C105.339 473.114 107.021 475.289 108.878 477.334C112.47 481.502 116.695 484.946 121.565 487.651C126.947 490.486 132.396 490.357 138.317 489.334C145.986 488.014 153.655 486.628 161.324 485.166C167.406 484.014 173.501 482.421 177.927 478.072C178.008 477.994 178.022 477.904 177.968 477.813C177.914 477.722 177.82 477.684 177.712 477.71C158.297 483.069 134.105 489.075 116.843 475.146C101.693 462.888 102.621 440.04 110.169 424.118C114.381 415.212 121.229 407.549 130.54 403.394C130.795 403.277 130.54 402.915 130.311 403.018Z" fill="#EEEDDE"/>
<path d="M246.967 185.156C247.161 184.676 246.439 184.455 246.194 184.845L243.744 183.625C243.834 183.482 243.834 183.339 243.757 183.196C243.666 183.054 243.55 182.989 243.383 183.002C217.05 185.208 190.989 189.232 165.211 195.086C154.495 197.552 143.16 200.006 134.301 206.989C127.067 212.726 122.528 221.033 119.317 229.548C113.321 245.41 109.104 262.05 108.188 278.898C108.188 279.677 108.111 280.456 108.085 281.235C107.84 287.621 108.124 293.994 108.936 300.329C110.522 312.828 112.818 325.185 115.848 337.413C118.414 347.511 121.367 357.843 126.951 366.735C131.49 374.004 137.822 379.845 146.139 382.246C150.794 383.596 155.695 383.959 160.272 385.53C163.045 386.477 167.623 391.059 170.769 389.774C173.026 388.84 173.684 385.257 174.328 383.258C175.489 379.572 176.662 375.899 177.874 372.251C180.479 364.346 183.149 356.467 185.882 348.615C197.811 314.295 210.512 280.222 223.421 246.228C231.171 225.81 239.024 205.457 246.967 185.156Z" fill="#26100C"/>
<path d="M332.975 193.948C333.053 193.673 332.948 193.489 332.673 193.41L308.697 187.017C308.54 186.978 308.409 187.004 308.29 187.109C308.185 187.214 308.133 187.332 308.159 187.49L301.319 188.383C301.24 188.186 301.095 188.081 300.872 188.081C300.662 188.081 300.504 188.186 300.439 188.383C279.812 245.314 259.093 302.206 237.691 358.875C232.951 371.411 228.356 384.04 223.038 396.34C222.933 396.589 223.038 397.048 223.419 396.996C232.899 395.683 242.418 395.394 251.963 396.143C257.622 396.602 261.666 397.875 264.095 392.139C265.789 388.148 267.102 383.948 268.56 379.865C274.1 364.362 279.497 348.754 284.906 333.238C297.944 295.787 310.903 258.297 323.784 220.767C326.856 211.788 329.928 202.848 332.975 193.948Z" fill="#26100C"/>
<path d="M390.483 253.152C386.907 235.179 379.926 217.663 365.633 205.399C365.369 205.19 365.145 205.229 364.96 205.516L357.583 201.611V201.532C357.755 200.997 356.91 200.775 356.725 201.297C340.018 249.259 323.086 297.13 305.956 344.922C300.017 361.432 294.039 377.942 288.021 394.451C287.981 394.595 287.995 394.726 288.087 394.83C288.166 394.948 288.285 395 288.43 395C320.565 392.662 357.821 388.887 378.421 361.092C389.322 346.398 393.73 328.073 394.72 310.152C395.657 290.978 394.245 271.973 390.483 253.152Z" fill="#26100C"/>
<path d="M388.741 228.099C386.258 220.841 383.527 213.359 378.522 207.426C368.381 195.468 349.524 191.255 335.071 187.527C305.825 180.203 274.802 177.184 244.694 177C212.102 179.179 178.91 181.817 147.795 192.265C134.139 196.833 121.542 202.451 115.034 216.142C108.526 229.832 104.671 245.334 102.41 260.271C97.8758 289.857 99.4962 321.385 109.349 349.855C113.701 362.43 120.235 374.545 130.99 382.736C142.633 391.622 157.4 394.733 171.487 397.398C197.806 402.372 224.255 404 250.927 404C278.892 404 306.675 401.821 334.091 396.098C347.642 393.263 361.403 389.22 371.792 379.599C381.723 370.411 387.512 357.455 391.328 344.671C395.588 329.97 398.071 314.967 398.79 299.675C399.496 284.383 398.424 269.223 395.549 254.181C393.903 245.321 391.642 236.631 388.741 228.099ZM386.258 320.178C384.076 333.435 380.874 347.27 374.392 359.136C368.028 370.818 358.463 378.286 345.852 382.355C318.409 391.228 287.582 393.473 258.964 393.552C240.538 393.604 222.164 393.552 203.804 391.622C189.155 390.231 174.676 387.816 160.366 384.364C147.129 381.069 135.119 375.464 127.383 363.73C120.405 353.15 116.876 340.602 114.289 328.303C111.127 313.129 109.898 297.785 110.591 282.296C111.297 266.795 113.897 251.634 118.405 236.802C120.483 229.989 122.639 222.691 126.573 216.693C131.147 209.71 138.896 206.494 146.436 203.79C177.904 192.475 211.514 189.68 244.641 187.501C267.771 187.645 290.732 189.719 313.522 193.722C328.184 196.138 342.481 199.97 356.385 205.234C362.278 207.544 368.028 210.524 371.818 215.787C375.83 221.379 377.947 228.349 380.025 234.859C384.389 248.628 387.107 262.712 388.166 277.125C389.224 291.537 388.597 305.884 386.284 320.138L386.258 320.178Z" fill="#26100C"/>
<path d="M488.643 274.953C485.034 265.732 476.218 262.554 467.325 261.155C467.612 254.864 467.115 248.625 465.86 242.452C461.91 225.776 441.834 220.937 426.532 220.99C423.746 203.778 418.959 187.102 410.693 171.904C401.852 155.53 389.571 140.097 372.411 131.883C354.375 123.212 333.462 119.327 313.922 115.6C278.845 108.903 243.44 107.256 207.997 111.951C186.992 114.724 166.327 119.04 145.963 124.873C127.091 130.274 111.671 139.207 99.6118 154.915C84.4795 174.625 76.9592 197.33 73.1925 220.99C57.8248 220.846 37.3825 225.606 33.4326 242.452C32.164 248.638 31.667 254.877 31.9286 261.181C23.2311 262.567 14.7429 265.51 10.95 274.194C8.56968 279.688 8.85742 285.73 9.3021 291.563C9.82526 298.508 10.6492 305.44 11.7871 312.332C12.8988 319.474 14.3113 326.575 16.0377 333.612C17.2017 338.359 18.5096 343.539 22.0802 347.122C26.1085 351.177 34.5967 353.152 41.2669 351.556C42.0647 354.852 42.9541 358.109 43.935 361.339C46.0015 368.114 49.3497 375.046 55.706 378.76C63.4095 383.259 71.8584 380.264 80.0196 381.794C81.2098 387.301 82.5177 392.781 83.9302 398.222C85.9575 406.357 88.9525 414.112 92.9285 421.489C91.5683 425.687 90.6659 429.99 90.2473 434.398C88.5078 451.374 93.0985 469.632 104.66 482.528C115.843 494.992 131.315 499.531 147.651 497.556C163.986 495.568 182.323 489.748 189.712 473.988C206.048 476.276 222.449 477.336 238.941 477.166C268.996 477.074 298.568 477.166 328.087 470.325C359.476 463.027 393.612 448.104 408.43 417.539C413.819 406.383 417.023 394.102 419.417 381.703C427.526 380.225 435.909 383.155 443.573 378.682C449.93 374.967 453.291 368.035 455.358 361.261C456.338 358.043 457.228 354.76 458.039 351.438C464.5 353.047 472.674 351.36 476.663 347.593C480.652 343.813 482.012 338.556 483.255 333.546C484.968 326.51 486.381 319.421 487.492 312.267C488.552 305.375 489.389 298.443 489.912 291.485C490.383 285.979 490.71 280.224 488.643 274.953ZM30.1237 340.413C27.3379 338.49 26.7886 333.834 26.0431 330.826C23.8981 322.142 22.2371 313.366 21.0731 304.485C20.1053 297.056 17.9342 287.522 19.8306 280.172C21.3739 274.378 26.7232 272.429 32.1378 271.5C32.2948 281.715 32.8572 291.916 33.8512 302.092C35.0937 314.988 36.5323 328.302 39.0435 341.263C35.97 341.969 33.001 341.682 30.1237 340.413ZM62.8078 370.586C56.5954 368.428 54.542 361.091 53.0771 355.375C51.9785 351.098 50.9845 346.782 50.0952 342.44C50.069 342.139 50.0167 341.852 49.9251 341.564C47.4663 329.23 45.6353 316.792 44.4451 304.276C42.771 287.496 42.1955 270.663 42.7187 253.804C42.9672 246.023 43.8696 239.535 51.4161 235.782C57.8771 232.813 64.665 231.348 71.7799 231.426C70.302 244.427 69.7658 257.637 69.5696 270.702C68.9288 304.564 71.7015 338.137 77.8616 371.449C72.7216 371.397 67.4639 372.221 62.7555 370.586H62.8078ZM144.015 487.577C140.379 487.943 136.782 487.786 133.185 487.106C129.602 486.426 126.188 485.262 122.945 483.587C119.701 481.926 116.758 479.834 114.129 477.31C111.501 474.785 109.277 471.947 107.459 468.782C105.497 465.316 103.915 461.68 102.712 457.861C101.521 454.055 100.75 450.171 100.383 446.195C100.03 442.219 100.096 438.256 100.58 434.293C101.077 430.33 101.979 426.472 103.287 422.705C103.392 422.509 103.47 422.313 103.522 422.117C106.007 415.669 110.572 409.718 116.745 406.409C120.669 404.316 125.181 403.048 129.17 405.768C131.995 407.73 134.14 411.183 133.656 414.583C122.474 424.078 119.753 442.167 124.645 455.586C125.246 457.286 126.031 458.908 126.999 460.438C127.967 461.968 129.092 463.381 130.386 464.649C131.668 465.931 133.081 467.043 134.624 467.997C136.167 468.952 137.789 469.724 139.502 470.312C141.216 470.901 142.981 471.293 144.786 471.489C146.591 471.673 148.396 471.659 150.188 471.437C151.993 471.215 153.745 470.809 155.459 470.195C157.159 469.58 158.781 468.769 160.298 467.788L160.416 467.723C166.628 469.528 172.841 471.019 179.236 472.248C172.566 483.208 155.433 486.582 143.962 487.577H144.015ZM407.253 387.523C403.395 404.63 397.64 420.142 384.575 432.371C373.091 443.134 358.482 450.276 343.69 455.232C313.87 465.238 283.082 466.833 251.876 466.833C220.238 466.833 189.163 465.839 158.702 456.239C149.756 453.454 141.163 449.831 132.924 445.371C132.061 437.027 133.957 426.838 140.666 422.064C141.844 421.096 142.733 419.919 143.335 418.52C145.676 411.562 142.602 404.199 137.449 399.307C131.25 393.369 123.102 392.493 115.267 395.671C108.257 398.562 102.685 403.178 98.5655 409.535C92.4707 395.462 90.0512 379.519 87.3961 364.674C83.8648 344.611 81.576 324.404 80.5428 304.067C79.5226 284.03 79.6927 264.006 81.0529 243.995C82.4 224.39 85.1466 204.523 93.0462 186.357C100.174 169.969 111.095 152.953 126.803 143.654C142.955 134.106 163.384 130.667 181.473 126.913C213.764 120.243 246.618 117.745 279.447 120.962C299.732 123.107 319.729 126.769 339.452 131.922C358.221 136.67 375.419 142.307 388.42 157.426C414.643 187.926 418.423 228.785 419.247 267.302C420.136 307.86 416.147 347.933 407.253 387.523ZM446.425 354.59C444.973 360.489 442.985 368.389 436.485 370.586C431.724 372.195 426.453 371.358 421.287 371.397C422.006 367.094 422.66 362.83 423.327 358.632C426.741 337.235 428.807 315.707 429.54 294.048C430.168 273.763 430.403 252.327 427.996 231.4C434.941 231.4 441.572 232.865 447.876 235.782C455.083 239.352 456.286 245.212 456.561 252.706C457.189 269.944 456.626 287.129 454.874 304.276C453.252 321.252 450.427 338.019 446.425 354.59ZM478.233 304.485C477.082 313.366 475.421 322.142 473.263 330.826C472.556 333.69 472.02 337.562 469.836 339.72C468.659 340.871 463.166 342.27 460.275 341.315C462.76 328.315 464.264 315.001 465.467 302.092C466.422 291.916 466.972 281.728 467.129 271.513C472.53 272.442 477.919 274.391 479.436 280.185C481.358 287.561 479.2 297.056 478.233 304.485Z" fill="#26100C"/>
<path d="M167.453 107.353C182.837 99.8607 199.019 95.046 215.987 92.9223C227.29 91.5372 238.619 91.9066 249.987 91.9066C260.989 91.9066 271.978 91.5372 282.954 92.8036C300.287 94.8482 316.797 99.7025 332.508 107.353C334.85 108.501 338.369 108.211 339.625 105.48C353.139 76.3544 360.595 45.738 361.995 13.6179C362.152 9.87166 358.554 8.11726 355.402 8.61852C344.792 10.1223 336.394 21.4929 329.055 28.4842L306.056 50.4208C301.7 40.5408 297.331 30.6343 292.948 20.7279C289.769 13.5388 285.792 -2.5147 274.712 3.2102C270.591 5.32076 267.255 9.63423 264.351 13.0903C260.963 17.074 257.888 21.2819 255.115 25.7273C253.257 28.7216 251.557 31.8347 249.843 34.9346C245.997 27.0332 241.261 19.7385 235.61 13.0375C231.332 8.02492 224.529 -0.944966 216.968 3.02553C213.501 4.80632 212.232 9.04063 210.754 12.3384L204.226 27.1255C200.785 34.9082 197.345 42.6909 193.917 50.4736L170.932 28.5369C163.593 21.5457 155.234 10.1751 144.598 8.61852C141.459 8.17002 137.848 9.87166 138.005 13.6179C139.418 45.738 146.875 76.3544 160.375 105.48C161.566 108.263 165.111 108.501 167.453 107.353ZM166.785 38.9974L191.955 63.0051C194.153 65.0892 198.719 65.142 200.131 61.9366C206.659 47.1495 213.187 32.3623 219.728 17.562C220.291 16.2429 220.866 13.552 221.887 12.7077C222.371 11.6393 222.305 11.8767 221.717 13.42L223.077 14.7655C224.595 17.2718 227.577 19.5671 229.461 21.9151C233.791 27.3893 237.481 33.2593 240.529 39.5382C240.633 39.8153 240.751 40.0659 240.895 40.3033C241.052 40.6067 241.222 40.8837 241.405 41.1607L245.487 47.9409C245.722 48.3235 245.997 48.6664 246.324 48.983C246.651 49.2996 247.004 49.5634 247.397 49.7877C247.789 50.0119 248.208 50.1834 248.653 50.2889C249.084 50.4076 249.529 50.4604 249.974 50.4604C250.432 50.4604 250.876 50.4076 251.308 50.2889C251.74 50.1834 252.159 50.0119 252.551 49.7877C252.943 49.5634 253.297 49.2996 253.624 48.983C253.951 48.6664 254.239 48.3235 254.474 47.9409C261.094 36.9264 266.601 25.5558 275.588 16.1506C276.556 15.0689 277.42 13.9081 278.179 12.6813C278.924 14.2115 280.52 18.1292 280.756 18.6173C282.783 23.1946 284.798 27.7851 286.813 32.3755L299.829 61.9894C301.255 65.1948 305.795 65.142 308.006 63.0578L333.162 39.0502L345.342 27.4289C347.212 25.6217 349.07 23.6695 351.032 22.0865C349.005 47.7562 342.843 72.3707 332.561 95.9562C318.118 89.4662 303.061 85.1264 287.401 82.9367C274.974 81.2218 262.546 81.4725 249.987 81.4725C237.677 81.4725 225.484 81.2087 213.24 82.8443C197.332 85.0077 182.052 89.3739 167.4 95.9562C157.118 72.3839 150.956 47.7562 148.915 22.0865C150.917 23.6827 152.735 25.6217 154.606 27.4289L166.785 38.9974Z" fill="#26100C"/>
<path d="M337.677 402.237C336.584 402.073 335.542 402.224 334.553 402.701C324.705 407.173 318.212 418.303 322.185 428.729C326.518 440.11 338.474 443.414 349.478 439.306C360.483 435.199 363.016 424.245 359.558 413.944C356.935 406.118 346.342 400.792 337.677 402.237ZM343.565 430.714C338.011 432.109 332.496 429.847 331.364 423.906C330.541 419.672 332.817 416.055 336.018 413.555C336.52 413.404 336.982 413.19 337.419 412.914C339.489 411.57 342.948 412.449 345.21 413.14C348.411 414.145 349.594 415.527 350.301 418.768C351.651 424.911 350.121 429.069 343.565 430.714Z" fill="#26100C"/>
</svg>
