<svg width="512" height="512" viewBox="0 0 512 512" fill="none" xmlns="http://www.w3.org/2000/svg">
<mask id="path-1-inside-1_3_2" fill="white">
<path fill-rule="evenodd" clip-rule="evenodd" d="M0 0L285.243 452.489V475.062H226.758V385.796L189.82 327.311H188.794V512H323.206V442.228L228.81 291.399L249.331 255.487L227.271 219.062L206.236 254.461L68.7455 38.477V36.9379H135.439L322.18 349.884H323.206V298.581L512 0H357.066L258.565 169.299L156.986 0H0ZM307.816 252.409L280.112 206.236L378.613 37.9639H443.255L307.816 252.409Z"/>
</mask>
<path fill-rule="evenodd" clip-rule="evenodd" d="M0 0L285.243 452.489V475.062H226.758V385.796L189.82 327.311H188.794V512H323.206V442.228L228.81 291.399L249.331 255.487L227.271 219.062L206.236 254.461L68.7455 38.477V36.9379H135.439L322.18 349.884H323.206V298.581L512 0H357.066L258.565 169.299L156.986 0H0ZM307.816 252.409L280.112 206.236L378.613 37.9639H443.255L307.816 252.409Z" fill="white"/>
<path d="M0 0V-2H-3.62499L-1.69189 1.06654L0 0ZM285.243 452.489H287.243V451.911L286.934 451.422L285.243 452.489ZM285.243 475.062V477.062H287.243V475.062H285.243ZM226.758 475.062H224.758V477.062H226.758V475.062ZM226.758 385.796H228.758V385.217L228.449 384.728L226.758 385.796ZM189.82 327.311L191.511 326.243L190.922 325.311H189.82V327.311ZM188.794 327.311V325.311H186.794V327.311H188.794ZM188.794 512H186.794V514H188.794V512ZM323.206 512V514H325.206V512H323.206ZM323.206 442.228H325.206V441.654L324.902 441.167L323.206 442.228ZM228.81 291.399L227.073 290.407L226.479 291.446L227.114 292.46L228.81 291.399ZM249.331 255.487L251.067 256.479L251.651 255.458L251.041 254.451L249.331 255.487ZM227.271 219.062L228.981 218.026L227.254 215.174L225.551 218.04L227.271 219.062ZM206.236 254.461L204.549 255.535L206.295 258.277L207.956 255.483L206.236 254.461ZM68.7455 38.477H66.7455V39.0595L67.0583 39.551L68.7455 38.477ZM68.7455 36.9379V34.9379H66.7455V36.9379H68.7455ZM135.439 36.9379L137.156 35.913L136.574 34.9379H135.439V36.9379ZM322.18 349.884L320.463 350.909L321.045 351.884H322.18V349.884ZM323.206 349.884V351.884H325.206V349.884H323.206ZM323.206 298.581L321.516 297.512L321.206 298.002V298.581H323.206ZM512 0L513.69 1.06886L515.631 -2H512V0ZM357.066 0V-2H355.916L355.337 -1.00579L357.066 0ZM258.565 169.299L256.85 170.328L258.592 173.23L260.294 170.304L258.565 169.299ZM156.986 0L158.701 -1.02899L158.118 -2H156.986V0ZM280.112 206.236L278.386 205.226L277.787 206.249L278.397 207.265L280.112 206.236ZM307.816 252.409L306.101 253.438L307.772 256.223L309.507 253.477L307.816 252.409ZM443.255 37.9639L444.946 39.0319L446.883 35.9639H443.255V37.9639ZM378.613 37.9639V35.9639H377.467L376.887 36.9536L378.613 37.9639ZM-1.69189 1.06654L283.551 453.556L286.934 451.422L1.69189 -1.06654L-1.69189 1.06654ZM283.243 452.489V475.062H287.243V452.489H283.243ZM285.243 473.062H226.758V477.062H285.243V473.062ZM228.758 475.062V385.796H224.758V475.062H228.758ZM228.449 384.728L191.511 326.243L188.129 328.379L225.067 386.864L228.449 384.728ZM189.82 325.311H188.794V329.311H189.82V325.311ZM186.794 327.311V512H190.794V327.311H186.794ZM188.794 514H323.206V510H188.794V514ZM325.206 512V442.228H321.206V512H325.206ZM324.902 441.167L230.505 290.338L227.114 292.46L321.511 443.29L324.902 441.167ZM230.546 292.391L251.067 256.479L247.594 254.495L227.073 290.407L230.546 292.391ZM251.041 254.451L228.981 218.026L225.56 220.098L247.62 256.523L251.041 254.451ZM225.551 218.04L204.517 253.439L207.956 255.483L228.99 220.084L225.551 218.04ZM207.924 253.387L70.4327 37.4029L67.0583 39.551L204.549 255.535L207.924 253.387ZM70.7455 38.477V36.9379H66.7455V38.477H70.7455ZM68.7455 38.9379H135.439V34.9379H68.7455V38.9379ZM133.721 37.9627L320.463 350.909L323.898 348.859L137.156 35.913L133.721 37.9627ZM322.18 351.884H323.206V347.884H322.18V351.884ZM325.206 349.884V298.581H321.206V349.884H325.206ZM324.897 299.65L513.69 1.06886L510.31 -1.06886L321.516 297.512L324.897 299.65ZM512 -2H357.066V2H512V-2ZM355.337 -1.00579L256.836 168.293L260.294 170.304L358.795 1.00579L355.337 -1.00579ZM260.28 168.27L158.701 -1.02899L155.271 1.02899L256.85 170.328L260.28 168.27ZM156.986 -2H0V2H156.986V-2ZM278.397 207.265L306.101 253.438L309.531 251.38L281.827 205.208L278.397 207.265ZM309.507 253.477L444.946 39.0319L441.564 36.8959L306.125 251.341L309.507 253.477ZM443.255 35.9639H378.613V39.9639H443.255V35.9639ZM376.887 36.9536L278.386 205.226L281.838 207.247L380.339 38.9743L376.887 36.9536Z" fill="#3A3845" mask="url(#path-1-inside-1_3_2)"/>
</svg>
